<?xml version="1.0" encoding="UTF-8"?>
<svg id="Layer_3" data-name="Layer 3" xmlns="http://www.w3.org/2000/svg" version="1.1" viewBox="0 0 268.3 36">
  <defs>
    <style>
      .cls-1 {
        fill: #e41d1b;
      }

      .cls-1, .cls-2 {
        stroke-width: 0px;
      }

      .cls-2 {
        fill: #000;
      }
    </style>
  </defs>
  <g>
    <path class="cls-2" d="M167.6,10h2l8.3,12.8v-12.8h1.8v15.5h-2l-8.3-12.8v12.8h-1.8v-15.5Z"/>
    <path class="cls-2" d="M190.7,21.8h1.8c0,1.1-.5,2-1.3,2.8-.9.8-2.2,1.3-3.8,1.3-2.4,0-4.2-1-4.9-2.8-.4-.8-.6-1.7-.6-2.8s.2-2,.6-2.8c.8-1.7,2.4-2.8,4.8-2.8s4,1.1,4.8,2.7c.4,1,.5,2,.5,3.3h-8.9c0,.7.2,1.4.4,1.9.5,1.2,1.7,1.8,3.3,1.8s1.9-.3,2.5-.8c.5-.4.8-1.1.8-1.8ZM184,17.9c-.2.4-.3.8-.4,1.3h7c0-.6-.2-1-.4-1.5-.5-1.1-1.6-1.7-3.1-1.7s-2.7.6-3.2,1.8Z"/>
    <path class="cls-2" d="M209.3,14.9l-3.8,10.7h-1.8l-2.6-8.3-2.5,8.3h-1.8l-3.8-10.7h1.9l2.8,8.5,2.6-8.5h1.8l2.6,8.5,2.8-8.5h1.9Z"/>
    <path class="cls-2" d="M210.1,23.8c-.2-.5-.4-1.1-.4-1.8h1.7c0,.5,0,.9.2,1.2.4.8,1.1,1.3,2.5,1.3s2.1-.4,2.4-1.1c0-.2.2-.4.2-.7s0-.5-.1-.6c-.4-.8-1.4-1-2.9-1.3-1.5-.3-2.9-.8-3.4-2-.2-.4-.2-.7-.2-1.1s0-.9.3-1.2c.5-1.1,1.8-1.8,3.7-1.8s3.2.6,3.8,1.9c.2.5.3,1,.3,1.6h-1.7c0-.4,0-.7-.2-1-.3-.7-1.1-1.1-2.2-1.1s-1.8.3-2,.9c0,.2-.1.4-.1.6s0,.4.1.5c.4.8,1.6,1.1,2.9,1.3,1.6.4,3,.9,3.5,2,.2.4.2.7.2,1.2s0,.9-.3,1.3c-.6,1.3-2.1,1.9-4.2,1.9s-3.5-.7-4.1-2Z"/>
    <path class="cls-2" d="M226.3,14.9v1.6c-.3,0-.7-.1-1.1-.1-1.9,0-2.9,1.2-2.9,3.3v5.9h-1.8v-10.7h1.7v1.4c.5-.9,1.5-1.5,2.9-1.5s.7,0,1.1.1Z"/>
    <path class="cls-2" d="M227.6,23c-.4-.8-.6-1.8-.6-2.8s.2-2,.6-2.8c.8-1.7,2.4-2.8,4.8-2.8s4,1.1,4.8,2.8c.4.8.5,1.8.5,2.8s-.2,2-.5,2.8c-.8,1.7-2.4,2.8-4.8,2.8s-4-1.1-4.8-2.8ZM235.5,22.5c.3-.6.4-1.4.4-2.3s-.1-1.7-.4-2.3c-.5-1.1-1.5-1.8-3.1-1.8s-2.6.7-3.1,1.8c-.3.6-.4,1.4-.4,2.3s.1,1.6.4,2.3c.5,1.1,1.5,1.8,3.1,1.8s2.6-.7,3.1-1.8Z"/>
    <path class="cls-2" d="M239.8,23c-.4-.8-.6-1.8-.6-2.8s.2-2,.6-2.8c.8-1.7,2.4-2.8,4.8-2.8s4,1.1,4.8,2.8c.4.8.5,1.8.5,2.8s-.2,2-.5,2.8c-.8,1.7-2.4,2.8-4.8,2.8s-4-1.1-4.8-2.8ZM247.6,22.5c.3-.6.4-1.4.4-2.3s-.1-1.7-.4-2.3c-.5-1.1-1.5-1.8-3.1-1.8s-2.6.7-3.1,1.8c-.3.6-.4,1.4-.4,2.3s.1,1.6.4,2.3c.5,1.1,1.5,1.8,3.1,1.8s2.6-.7,3.1-1.8Z"/>
    <path class="cls-2" d="M268.3,19.1v6.4h-1.8v-6.1c0-2.3-.9-3.3-2.6-3.3s-2.9,1.2-2.9,3.3v6.1h-1.8v-6.1c0-2.3-.8-3.3-2.6-3.3s-2.9,1.2-2.9,3.3v6.1h-1.8v-10.7h1.8v1.4c.7-1.1,1.9-1.7,3.4-1.7s3,.7,3.6,2.2c.7-1.5,2-2.2,3.7-2.2,2.6,0,3.9,1.5,3.9,4.5Z"/>
  </g>
  <rect class="cls-2" x="143" y="3.6" width="1" height="30"/>
  <g id="g3069">
    <g id="svg_1" data-name="svg 1">
      <path id="svg_2" data-name="svg 2" class="cls-1" d="M83.1,15.7c15.3-6.1,24.8-9.6,50.1-15.7-13.7.9-44,2.9-64.8,7.1,0,0,14.4,8.5,14.8,8.7Z"/>
    </g>
    <g id="svg_3" data-name="svg 3">
      <path id="svg_4" data-name="svg 4" class="cls-1" d="M35.6,36h20c3.9-6,8-8.9,12.4-12.2-3.4-1.4-6.9-2.7-10.5-3.9-12.8,5.6-19.9,13.1-22,16.1h0Z"/>
    </g>
    <g id="svg_5" data-name="svg 5">
      <path id="svg_6" data-name="svg 6" class="cls-1" d="M39.6,14.2c-17.8,6.3-27.7,13.3-34.4,21.8h22c2.1-3,10.4-11.7,25.8-17.6-4.3-1.5-11.7-3.8-13.4-4.2h0Z"/>
    </g>
    <g id="svg_7" data-name="svg 7">
      <path id="svg_8" data-name="svg 8" class="cls-1" d="M48.8.7H0c49.1,8.9,72.8,20.4,111,36.5C107.7,34.8,55.1,3.9,48.8.7Z"/>
    </g>
  </g>
</svg>