<svg xmlns="http://www.w3.org/2000/svg" width="32" height="32" viewBox="0 0 32 32" fill="none">
  <path d="M10 3.8 22 3.8 28 16 22 28.2 10 28.2 4 16 10 3.8Z" stroke="#7CC242" stroke-width="2.2" stroke-linejoin="round"/>
  <rect x="9" y="9" width="3.6" height="14" rx="0.8" fill="#7CC242"/>
  <path d="M12.6 9.2h3.2l4.6 5.2V9.2h2.8v13.6h-3l-4.8-5.5v5.5h-2.8V9.2Z" fill="#ffffff"/>
  <path d="M20.8 9.2h2.6c2.2 0 3.8 1.5 3.8 3.6 0 1.7-.9 2.9-2.2 3.4l2.2 3.8h-3.1l-1.8-3.3h-1.5V9.2Zm2.6 5.1c.9 0 1.5-.5 1.5-1.3 0-.9-.6-1.4-1.5-1.4h-.2v2.7h.2Z" fill="#ffffff"/>
  <rect x="6.6" y="20.8" width="1.8" height="1.8" rx="0.35" fill="#ffffff" opacity="0.85"/>
  <rect x="8.9" y="20.8" width="1.8" height="1.8" rx="0.35" fill="#ffffff" opacity="0.65"/>
  <rect x="6.6" y="23.1" width="1.8" height="1.8" rx="0.35" fill="#ffffff" opacity="0.65"/>
  <rect x="8.9" y="23.1" width="1.8" height="1.8" rx="0.35" fill="#7CC242" opacity="0.95"/>
</svg>
