<svg xmlns="http://www.w3.org/2000/svg" width="32" height="32" viewBox="0 0 32 32" fill="none">
  <path d="M16 3.5 26 7.3v8.4c0 6.1-4 10.6-10 12.8C10 26.3 6 21.8 6 15.7V7.3L16 3.5Z" stroke="#ffffff" stroke-width="2.1" stroke-linejoin="round"/>
  <rect x="9.2" y="13.6" width="1.8" height="5.2" rx="0.4" fill="#7CC242"/>
  <rect x="11.5" y="12.5" width="1.4" height="7.4" rx="0.35" fill="#ffffff"/>
  <rect x="19.1" y="12.5" width="1.4" height="7.4" rx="0.35" fill="#ffffff"/>
  <rect x="21" y="13.6" width="1.8" height="5.2" rx="0.4" fill="#7CC242"/>
  <rect x="12.9" y="15.2" width="6.2" height="2" rx="1" fill="#7CC242"/>
  <path d="M10 9h2.8l4.3 5V9h2.5v10.3H17L12.5 14v5.3H10V9Z" fill="#ffffff"/>
  <path d="M18.7 9h2.2c2.5 0 4.1 1.3 4.1 3.5 0 1.6-.8 2.7-2.2 3.2l2.1 3.6h-2.9l-1.7-3h-.7v3h-2.6V9Zm2.3 5.2c.9 0 1.5-.5 1.5-1.3s-.6-1.3-1.5-1.3h-.4v2.6h.4Z" fill="#ffffff"/>
</svg>
