<svg xmlns="http://www.w3.org/2000/svg" width="32" height="32" viewBox="0 0 32 32" fill="none">
  <rect x="4" y="4" width="24" height="24" rx="5.5" stroke="#ffffff" stroke-width="2.1"/>
  <path d="M22 4v5.8c0 1.2 1 2.2 2.2 2.2H30" stroke="#7CC242" stroke-width="2.1" stroke-linecap="round" stroke-linejoin="round"/>
  <rect x="8" y="9" width="3.5" height="14" rx="0.8" fill="#7CC242"/>
  <path d="M11.4 9h3.1l4.4 5.2V9h2.6v13.9h-2.9l-4.6-5.5v5.5h-2.6V9Z" fill="#ffffff"/>
  <path d="M19.4 9h5.3c1.7 0 2.9 1.1 2.9 2.7 0 1.1-.6 2-1.6 2.4 1.3.3 2.1 1.3 2.1 2.8 0 1.9-1.4 3.1-3.5 3.1h-5.2V9Zm4.7 4.2c.8 0 1.3-.4 1.3-1s-.5-1-1.3-1h-2v2h2Zm.3 4.6c.9 0 1.4-.4 1.4-1.1s-.5-1.1-1.4-1.1h-2.3v2.2h2.3Z" fill="#ffffff"/>
  <rect x="7.5" y="24.4" width="2.1" height="2.1" rx="0.45" fill="#ffffff" opacity="0.75"/>
  <rect x="10.2" y="24.4" width="2.1" height="2.1" rx="0.45" fill="#7CC242"/>
  <rect x="12.9" y="24.4" width="2.1" height="2.1" rx="0.45" fill="#ffffff" opacity="0.55"/>
</svg>
