<svg xmlns="http://www.w3.org/2000/svg" width="32" height="32" viewBox="0 0 32 32" fill="none">
  <path d="M11.2 11.2V9.9c0-2.7 2.1-4.9 4.8-4.9s4.8 2.2 4.8 4.9v1.3" stroke="#7CC242" stroke-width="2.2" stroke-linecap="round"/>
  <path d="M9.3 11.2h13.4c3.3 0 5.8 2.6 5.8 5.9v3.8c0 3.4-2.6 6.1-5.9 6.1H9.4c-3.4 0-5.9-2.7-5.9-6.1v-3.8c0-3.3 2.5-5.9 5.8-5.9Z" stroke="#ffffff" stroke-width="2.1"/>
  <rect x="9.1" y="13.6" width="3.4" height="11.2" rx="0.8" fill="#7CC242"/>
  <path d="M12.4 13.6h2.8l4.1 4.9v-4.9h2.5v11.2H19l-4.2-5.1v5.1h-2.4V13.6Z" fill="#ffffff"/>
  <path d="M19.2 13.6h2.6c2.5 0 4.1 1.5 4.1 3.7 0 1.7-.9 2.9-2.3 3.4l2.1 4.1h-3l-1.6-3.4h-.6v3.4h-2.3V13.6Zm2.3 5.6c.9 0 1.5-.6 1.5-1.5 0-.9-.6-1.4-1.5-1.4h-.1v2.9h.1Z" fill="#ffffff"/>
</svg>
