<svg xmlns="http://www.w3.org/2000/svg" width="32" height="32" viewBox="0 0 32 32" fill="none">
  <circle cx="16" cy="16" r="12" stroke="#ffffff" stroke-width="2.2"/>
  <circle cx="16" cy="16" r="3" stroke="#7CC242" stroke-width="2"/>
  <path d="M16 4a12 12 0 0 1 12 12" stroke="#7CC242" stroke-width="2.2" stroke-linecap="round"/>
  <rect x="7.7" y="10" width="3.1" height="12" rx="0.7" fill="#7CC242"/>
  <path d="M10.7 10h2.8l4 4.8V10H20v12h-2.6l-4.2-5v5h-2.5V10Z" fill="#ffffff"/>
  <path d="M18.8 10h2.4c2.6 0 4.2 1.5 4.2 3.8 0 1.5-.8 2.7-2.1 3.3l2.2 3.9h-3l-1.7-3.3h-.4V21h-2.6V10Zm2.4 5.4c.9 0 1.5-.6 1.5-1.5 0-1-.6-1.4-1.5-1.4h-.2v2.9h.2Z" fill="#ffffff"/>
  <rect x="6.7" y="23.1" width="1.9" height="1.9" rx="0.35" fill="#ffffff" opacity="0.7"/>
  <rect x="9.1" y="23.1" width="1.9" height="1.9" rx="0.35" fill="#7CC242"/>
</svg>
